<mxfile host="Electron" agent="Mozilla/5.0 (Macintosh; Intel Mac OS X 10_15_7) AppleWebKit/537.36 (KHTML, like Gecko) draw.io/26.2.15 Chrome/134.0.6998.205 Electron/35.2.1 Safari/537.36" version="26.2.15">
  <diagram name="Page-1" id="_n1LZgANd8zEwi0U5w4z">
    <mxGraphModel dx="1113" dy="709" grid="1" gridSize="10" guides="1" tooltips="1" connect="1" arrows="1" fold="1" page="1" pageScale="1" pageWidth="850" pageHeight="1100" background="none" math="0" shadow="0">
      <root>
        <mxCell id="0" />
        <mxCell id="1" parent="0" />
        <mxCell id="O0ssllRnNKwDEn77qQZ8-20" value="" style="rounded=0;whiteSpace=wrap;html=1;fillColor=default;" parent="1" vertex="1">
          <mxGeometry x="450" y="150" width="290" height="290" as="geometry" />
        </mxCell>
        <mxCell id="xQuqzKJTbSrKoZD_pOgn-4" style="edgeStyle=orthogonalEdgeStyle;rounded=0;orthogonalLoop=1;jettySize=auto;html=1;entryX=0;entryY=0.5;entryDx=0;entryDy=0;" parent="1" source="O0ssllRnNKwDEn77qQZ8-1" target="O0ssllRnNKwDEn77qQZ8-22" edge="1">
          <mxGeometry relative="1" as="geometry" />
        </mxCell>
        <mxCell id="O0ssllRnNKwDEn77qQZ8-1" value="Control" style="rounded=1;whiteSpace=wrap;html=1;" parent="1" vertex="1">
          <mxGeometry x="160" y="50" width="150" height="70" as="geometry" />
        </mxCell>
        <mxCell id="O0ssllRnNKwDEn77qQZ8-2" value="PE" style="rounded=1;whiteSpace=wrap;html=1;" parent="1" vertex="1">
          <mxGeometry x="460" y="160" width="60" height="60" as="geometry" />
        </mxCell>
        <mxCell id="O0ssllRnNKwDEn77qQZ8-3" value="PE" style="rounded=1;whiteSpace=wrap;html=1;" parent="1" vertex="1">
          <mxGeometry x="530" y="160" width="60" height="60" as="geometry" />
        </mxCell>
        <mxCell id="O0ssllRnNKwDEn77qQZ8-4" value="PE" style="rounded=1;whiteSpace=wrap;html=1;" parent="1" vertex="1">
          <mxGeometry x="600" y="160" width="60" height="60" as="geometry" />
        </mxCell>
        <mxCell id="O0ssllRnNKwDEn77qQZ8-5" value="PE" style="rounded=1;whiteSpace=wrap;html=1;" parent="1" vertex="1">
          <mxGeometry x="670" y="160" width="60" height="60" as="geometry" />
        </mxCell>
        <mxCell id="O0ssllRnNKwDEn77qQZ8-6" value="PE" style="rounded=1;whiteSpace=wrap;html=1;" parent="1" vertex="1">
          <mxGeometry x="460" y="230" width="60" height="60" as="geometry" />
        </mxCell>
        <mxCell id="O0ssllRnNKwDEn77qQZ8-7" value="PE" style="rounded=1;whiteSpace=wrap;html=1;" parent="1" vertex="1">
          <mxGeometry x="530" y="230" width="60" height="60" as="geometry" />
        </mxCell>
        <mxCell id="O0ssllRnNKwDEn77qQZ8-8" value="PE" style="rounded=1;whiteSpace=wrap;html=1;" parent="1" vertex="1">
          <mxGeometry x="600" y="230" width="60" height="60" as="geometry" />
        </mxCell>
        <mxCell id="O0ssllRnNKwDEn77qQZ8-9" value="PE" style="rounded=1;whiteSpace=wrap;html=1;" parent="1" vertex="1">
          <mxGeometry x="670" y="230" width="60" height="60" as="geometry" />
        </mxCell>
        <mxCell id="O0ssllRnNKwDEn77qQZ8-10" value="PE" style="rounded=1;whiteSpace=wrap;html=1;" parent="1" vertex="1">
          <mxGeometry x="460" y="300" width="60" height="60" as="geometry" />
        </mxCell>
        <mxCell id="O0ssllRnNKwDEn77qQZ8-11" value="PE" style="rounded=1;whiteSpace=wrap;html=1;" parent="1" vertex="1">
          <mxGeometry x="530" y="300" width="60" height="60" as="geometry" />
        </mxCell>
        <mxCell id="O0ssllRnNKwDEn77qQZ8-12" value="PE" style="rounded=1;whiteSpace=wrap;html=1;" parent="1" vertex="1">
          <mxGeometry x="600" y="300" width="60" height="60" as="geometry" />
        </mxCell>
        <mxCell id="O0ssllRnNKwDEn77qQZ8-13" value="PE" style="rounded=1;whiteSpace=wrap;html=1;" parent="1" vertex="1">
          <mxGeometry x="670" y="300" width="60" height="60" as="geometry" />
        </mxCell>
        <mxCell id="O0ssllRnNKwDEn77qQZ8-14" value="PE" style="rounded=1;whiteSpace=wrap;html=1;" parent="1" vertex="1">
          <mxGeometry x="460" y="370" width="60" height="60" as="geometry" />
        </mxCell>
        <mxCell id="O0ssllRnNKwDEn77qQZ8-15" value="PE" style="rounded=1;whiteSpace=wrap;html=1;" parent="1" vertex="1">
          <mxGeometry x="530" y="370" width="60" height="60" as="geometry" />
        </mxCell>
        <mxCell id="O0ssllRnNKwDEn77qQZ8-16" value="PE" style="rounded=1;whiteSpace=wrap;html=1;" parent="1" vertex="1">
          <mxGeometry x="600" y="370" width="60" height="60" as="geometry" />
        </mxCell>
        <mxCell id="O0ssllRnNKwDEn77qQZ8-17" value="PE" style="rounded=1;whiteSpace=wrap;html=1;" parent="1" vertex="1">
          <mxGeometry x="670" y="370" width="60" height="60" as="geometry" />
        </mxCell>
        <mxCell id="O0ssllRnNKwDEn77qQZ8-21" value="Memory" style="rounded=1;whiteSpace=wrap;html=1;" parent="1" vertex="1">
          <mxGeometry x="470" y="50" width="250" height="80" as="geometry" />
        </mxCell>
        <mxCell id="O0ssllRnNKwDEn77qQZ8-22" value="Memory" style="rounded=1;whiteSpace=wrap;html=1;" parent="1" vertex="1">
          <mxGeometry x="350" y="170" width="80" height="250" as="geometry" />
        </mxCell>
        <mxCell id="xQuqzKJTbSrKoZD_pOgn-5" style="edgeStyle=orthogonalEdgeStyle;rounded=0;orthogonalLoop=1;jettySize=auto;html=1;entryX=0;entryY=0.438;entryDx=0;entryDy=0;entryPerimeter=0;" parent="1" source="O0ssllRnNKwDEn77qQZ8-1" target="O0ssllRnNKwDEn77qQZ8-21" edge="1">
          <mxGeometry relative="1" as="geometry" />
        </mxCell>
        <mxCell id="xQuqzKJTbSrKoZD_pOgn-6" value="" style="endArrow=classic;html=1;rounded=0;entryX=-0.006;entryY=0.14;entryDx=0;entryDy=0;entryPerimeter=0;" parent="1" target="O0ssllRnNKwDEn77qQZ8-20" edge="1">
          <mxGeometry width="50" height="50" relative="1" as="geometry">
            <mxPoint x="430" y="190" as="sourcePoint" />
            <mxPoint x="480" y="140" as="targetPoint" />
          </mxGeometry>
        </mxCell>
        <mxCell id="xQuqzKJTbSrKoZD_pOgn-8" value="" style="endArrow=classic;html=1;rounded=0;entryX=-0.006;entryY=0.14;entryDx=0;entryDy=0;entryPerimeter=0;" parent="1" edge="1">
          <mxGeometry width="50" height="50" relative="1" as="geometry">
            <mxPoint x="430" y="259.5" as="sourcePoint" />
            <mxPoint x="448" y="260.5" as="targetPoint" />
          </mxGeometry>
        </mxCell>
        <mxCell id="xQuqzKJTbSrKoZD_pOgn-9" value="" style="endArrow=classic;html=1;rounded=0;entryX=-0.006;entryY=0.14;entryDx=0;entryDy=0;entryPerimeter=0;" parent="1" edge="1">
          <mxGeometry width="50" height="50" relative="1" as="geometry">
            <mxPoint x="432" y="329.5" as="sourcePoint" />
            <mxPoint x="450" y="330.5" as="targetPoint" />
          </mxGeometry>
        </mxCell>
        <mxCell id="xQuqzKJTbSrKoZD_pOgn-10" value="" style="endArrow=classic;html=1;rounded=0;entryX=-0.006;entryY=0.14;entryDx=0;entryDy=0;entryPerimeter=0;" parent="1" edge="1">
          <mxGeometry width="50" height="50" relative="1" as="geometry">
            <mxPoint x="432" y="399.5" as="sourcePoint" />
            <mxPoint x="450" y="400.5" as="targetPoint" />
          </mxGeometry>
        </mxCell>
        <mxCell id="xQuqzKJTbSrKoZD_pOgn-11" value="" style="endArrow=classic;html=1;rounded=0;entryX=0.141;entryY=-0.011;entryDx=0;entryDy=0;entryPerimeter=0;" parent="1" target="O0ssllRnNKwDEn77qQZ8-20" edge="1">
          <mxGeometry width="50" height="50" relative="1" as="geometry">
            <mxPoint x="490" y="130" as="sourcePoint" />
            <mxPoint x="540" y="80" as="targetPoint" />
          </mxGeometry>
        </mxCell>
        <mxCell id="xQuqzKJTbSrKoZD_pOgn-13" value="" style="endArrow=classic;html=1;rounded=0;exitX=0.382;exitY=1.016;exitDx=0;exitDy=0;exitPerimeter=0;entryX=0.4;entryY=-0.009;entryDx=0;entryDy=0;entryPerimeter=0;" parent="1" source="O0ssllRnNKwDEn77qQZ8-21" target="O0ssllRnNKwDEn77qQZ8-20" edge="1">
          <mxGeometry width="50" height="50" relative="1" as="geometry">
            <mxPoint x="500" y="140" as="sourcePoint" />
            <mxPoint x="560" y="150" as="targetPoint" />
          </mxGeometry>
        </mxCell>
        <mxCell id="xQuqzKJTbSrKoZD_pOgn-14" value="" style="endArrow=classic;html=1;rounded=0;exitX=0.382;exitY=1.016;exitDx=0;exitDy=0;exitPerimeter=0;entryX=0.622;entryY=-0.002;entryDx=0;entryDy=0;entryPerimeter=0;" parent="1" target="O0ssllRnNKwDEn77qQZ8-20" edge="1">
          <mxGeometry width="50" height="50" relative="1" as="geometry">
            <mxPoint x="630.5" y="131" as="sourcePoint" />
            <mxPoint x="629.5" y="150" as="targetPoint" />
          </mxGeometry>
        </mxCell>
        <mxCell id="xQuqzKJTbSrKoZD_pOgn-15" value="" style="endArrow=classic;html=1;rounded=0;exitX=0.382;exitY=1.016;exitDx=0;exitDy=0;exitPerimeter=0;entryX=0.622;entryY=-0.002;entryDx=0;entryDy=0;entryPerimeter=0;" parent="1" edge="1">
          <mxGeometry width="50" height="50" relative="1" as="geometry">
            <mxPoint x="700.25" y="130" as="sourcePoint" />
            <mxPoint x="699.75" y="148" as="targetPoint" />
          </mxGeometry>
        </mxCell>
        <mxCell id="xQuqzKJTbSrKoZD_pOgn-18" value="" style="endArrow=classic;html=1;rounded=0;entryX=0;entryY=0;entryDx=0;entryDy=0;" parent="1" target="O0ssllRnNKwDEn77qQZ8-20" edge="1">
          <mxGeometry width="50" height="50" relative="1" as="geometry">
            <mxPoint x="230" y="150" as="sourcePoint" />
            <mxPoint x="290" y="100" as="targetPoint" />
          </mxGeometry>
        </mxCell>
        <mxCell id="xQuqzKJTbSrKoZD_pOgn-19" value="" style="endArrow=none;html=1;rounded=0;" parent="1" edge="1">
          <mxGeometry width="50" height="50" relative="1" as="geometry">
            <mxPoint x="230" y="150" as="sourcePoint" />
            <mxPoint x="230" y="120" as="targetPoint" />
          </mxGeometry>
        </mxCell>
        <mxCell id="xQuqzKJTbSrKoZD_pOgn-24" value="" style="rounded=0;whiteSpace=wrap;html=1;fillColor=default;" parent="1" vertex="1">
          <mxGeometry x="315" y="670" width="290" height="290" as="geometry" />
        </mxCell>
        <mxCell id="xQuqzKJTbSrKoZD_pOgn-25" value="Reg" style="rounded=1;whiteSpace=wrap;html=1;" parent="1" vertex="1">
          <mxGeometry x="325" y="680" width="60" height="60" as="geometry" />
        </mxCell>
        <mxCell id="xQuqzKJTbSrKoZD_pOgn-26" value="Reg" style="rounded=1;whiteSpace=wrap;html=1;" parent="1" vertex="1">
          <mxGeometry x="395" y="680" width="60" height="60" as="geometry" />
        </mxCell>
        <mxCell id="xQuqzKJTbSrKoZD_pOgn-27" value="Reg" style="rounded=1;whiteSpace=wrap;html=1;" parent="1" vertex="1">
          <mxGeometry x="465" y="680" width="60" height="60" as="geometry" />
        </mxCell>
        <mxCell id="xQuqzKJTbSrKoZD_pOgn-28" value="Reg" style="rounded=1;whiteSpace=wrap;html=1;" parent="1" vertex="1">
          <mxGeometry x="535" y="680" width="60" height="60" as="geometry" />
        </mxCell>
        <mxCell id="xQuqzKJTbSrKoZD_pOgn-29" value="Reg" style="rounded=1;whiteSpace=wrap;html=1;" parent="1" vertex="1">
          <mxGeometry x="325" y="750" width="60" height="60" as="geometry" />
        </mxCell>
        <mxCell id="xQuqzKJTbSrKoZD_pOgn-30" value="Reg" style="rounded=1;whiteSpace=wrap;html=1;" parent="1" vertex="1">
          <mxGeometry x="395" y="750" width="60" height="60" as="geometry" />
        </mxCell>
        <mxCell id="xQuqzKJTbSrKoZD_pOgn-31" value="Reg" style="rounded=1;whiteSpace=wrap;html=1;" parent="1" vertex="1">
          <mxGeometry x="465" y="750" width="60" height="60" as="geometry" />
        </mxCell>
        <mxCell id="xQuqzKJTbSrKoZD_pOgn-32" value="Reg" style="rounded=1;whiteSpace=wrap;html=1;" parent="1" vertex="1">
          <mxGeometry x="535" y="750" width="60" height="60" as="geometry" />
        </mxCell>
        <mxCell id="xQuqzKJTbSrKoZD_pOgn-33" value="Reg" style="rounded=1;whiteSpace=wrap;html=1;" parent="1" vertex="1">
          <mxGeometry x="325" y="820" width="60" height="60" as="geometry" />
        </mxCell>
        <mxCell id="xQuqzKJTbSrKoZD_pOgn-34" value="Reg" style="rounded=1;whiteSpace=wrap;html=1;" parent="1" vertex="1">
          <mxGeometry x="395" y="820" width="60" height="60" as="geometry" />
        </mxCell>
        <mxCell id="xQuqzKJTbSrKoZD_pOgn-35" value="Reg" style="rounded=1;whiteSpace=wrap;html=1;" parent="1" vertex="1">
          <mxGeometry x="465" y="820" width="60" height="60" as="geometry" />
        </mxCell>
        <mxCell id="xQuqzKJTbSrKoZD_pOgn-36" value="Reg" style="rounded=1;whiteSpace=wrap;html=1;" parent="1" vertex="1">
          <mxGeometry x="535" y="820" width="60" height="60" as="geometry" />
        </mxCell>
        <mxCell id="xQuqzKJTbSrKoZD_pOgn-37" value="Reg" style="rounded=1;whiteSpace=wrap;html=1;" parent="1" vertex="1">
          <mxGeometry x="325" y="890" width="60" height="60" as="geometry" />
        </mxCell>
        <mxCell id="xQuqzKJTbSrKoZD_pOgn-38" value="Reg" style="rounded=1;whiteSpace=wrap;html=1;" parent="1" vertex="1">
          <mxGeometry x="395" y="890" width="60" height="60" as="geometry" />
        </mxCell>
        <mxCell id="xQuqzKJTbSrKoZD_pOgn-39" value="Reg" style="rounded=1;whiteSpace=wrap;html=1;" parent="1" vertex="1">
          <mxGeometry x="465" y="890" width="60" height="60" as="geometry" />
        </mxCell>
        <mxCell id="xQuqzKJTbSrKoZD_pOgn-40" value="Reg" style="rounded=1;whiteSpace=wrap;html=1;" parent="1" vertex="1">
          <mxGeometry x="535" y="890" width="60" height="60" as="geometry" />
        </mxCell>
        <mxCell id="xQuqzKJTbSrKoZD_pOgn-41" value="" style="endArrow=classic;html=1;rounded=0;exitX=0.06;exitY=0.987;exitDx=0;exitDy=0;exitPerimeter=0;" parent="1" source="xQuqzKJTbSrKoZD_pOgn-42" edge="1">
          <mxGeometry width="50" height="50" relative="1" as="geometry">
            <mxPoint x="240" y="719.58" as="sourcePoint" />
            <mxPoint x="305" y="719.58" as="targetPoint" />
          </mxGeometry>
        </mxCell>
        <mxCell id="xQuqzKJTbSrKoZD_pOgn-42" value="Read Enable Read Element&amp;nbsp;" style="text;html=1;align=center;verticalAlign=middle;resizable=0;points=[];autosize=1;strokeColor=none;fillColor=none;" parent="1" vertex="1">
          <mxGeometry x="140" y="690" width="180" height="30" as="geometry" />
        </mxCell>
        <mxCell id="xQuqzKJTbSrKoZD_pOgn-43" value="" style="endArrow=classic;html=1;rounded=0;exitX=0.06;exitY=0.987;exitDx=0;exitDy=0;exitPerimeter=0;" parent="1" source="xQuqzKJTbSrKoZD_pOgn-44" edge="1">
          <mxGeometry width="50" height="50" relative="1" as="geometry">
            <mxPoint x="240" y="794.5" as="sourcePoint" />
            <mxPoint x="305" y="794.5" as="targetPoint" />
          </mxGeometry>
        </mxCell>
        <mxCell id="xQuqzKJTbSrKoZD_pOgn-44" value="Read Enable Read Element&amp;nbsp;" style="text;html=1;align=center;verticalAlign=middle;resizable=0;points=[];autosize=1;strokeColor=none;fillColor=none;" parent="1" vertex="1">
          <mxGeometry x="140" y="764.92" width="180" height="30" as="geometry" />
        </mxCell>
        <mxCell id="xQuqzKJTbSrKoZD_pOgn-45" value="" style="endArrow=classic;html=1;rounded=0;exitX=0.06;exitY=0.987;exitDx=0;exitDy=0;exitPerimeter=0;" parent="1" source="xQuqzKJTbSrKoZD_pOgn-46" edge="1">
          <mxGeometry width="50" height="50" relative="1" as="geometry">
            <mxPoint x="240" y="864.45" as="sourcePoint" />
            <mxPoint x="305" y="864.45" as="targetPoint" />
          </mxGeometry>
        </mxCell>
        <mxCell id="xQuqzKJTbSrKoZD_pOgn-46" value="Read Enable Read Element&amp;nbsp;" style="text;html=1;align=center;verticalAlign=middle;resizable=0;points=[];autosize=1;strokeColor=none;fillColor=none;" parent="1" vertex="1">
          <mxGeometry x="140" y="834.87" width="180" height="30" as="geometry" />
        </mxCell>
        <mxCell id="xQuqzKJTbSrKoZD_pOgn-47" value="" style="endArrow=classic;html=1;rounded=0;exitX=0.06;exitY=0.987;exitDx=0;exitDy=0;exitPerimeter=0;" parent="1" source="xQuqzKJTbSrKoZD_pOgn-48" edge="1">
          <mxGeometry width="50" height="50" relative="1" as="geometry">
            <mxPoint x="240" y="934.45" as="sourcePoint" />
            <mxPoint x="305" y="934.45" as="targetPoint" />
          </mxGeometry>
        </mxCell>
        <mxCell id="xQuqzKJTbSrKoZD_pOgn-48" value="Read Enable Read Element&amp;nbsp;" style="text;html=1;align=center;verticalAlign=middle;resizable=0;points=[];autosize=1;strokeColor=none;fillColor=none;" parent="1" vertex="1">
          <mxGeometry x="140" y="904.87" width="180" height="30" as="geometry" />
        </mxCell>
        <mxCell id="xQuqzKJTbSrKoZD_pOgn-49" value="" style="endArrow=classic;html=1;rounded=0;exitX=0.06;exitY=0.987;exitDx=0;exitDy=0;exitPerimeter=0;entryX=0.99;entryY=0.985;entryDx=0;entryDy=0;entryPerimeter=0;" parent="1" source="xQuqzKJTbSrKoZD_pOgn-50" target="xQuqzKJTbSrKoZD_pOgn-50" edge="1">
          <mxGeometry width="50" height="50" relative="1" as="geometry">
            <mxPoint x="655" y="724.58" as="sourcePoint" />
            <mxPoint x="720" y="724.58" as="targetPoint" />
          </mxGeometry>
        </mxCell>
        <mxCell id="xQuqzKJTbSrKoZD_pOgn-50" value="Data Out" style="text;html=1;align=center;verticalAlign=middle;resizable=0;points=[];autosize=1;strokeColor=none;fillColor=none;" parent="1" vertex="1">
          <mxGeometry x="610" y="695" width="70" height="30" as="geometry" />
        </mxCell>
        <mxCell id="xQuqzKJTbSrKoZD_pOgn-51" value="" style="endArrow=classic;html=1;rounded=0;exitX=0.06;exitY=0.987;exitDx=0;exitDy=0;exitPerimeter=0;entryX=0.99;entryY=0.985;entryDx=0;entryDy=0;entryPerimeter=0;" parent="1" source="xQuqzKJTbSrKoZD_pOgn-52" target="xQuqzKJTbSrKoZD_pOgn-52" edge="1">
          <mxGeometry width="50" height="50" relative="1" as="geometry">
            <mxPoint x="655" y="789.58" as="sourcePoint" />
            <mxPoint x="720" y="789.58" as="targetPoint" />
          </mxGeometry>
        </mxCell>
        <mxCell id="xQuqzKJTbSrKoZD_pOgn-52" value="Data Out" style="text;html=1;align=center;verticalAlign=middle;resizable=0;points=[];autosize=1;strokeColor=none;fillColor=none;" parent="1" vertex="1">
          <mxGeometry x="610" y="760" width="70" height="30" as="geometry" />
        </mxCell>
        <mxCell id="xQuqzKJTbSrKoZD_pOgn-53" value="" style="endArrow=classic;html=1;rounded=0;exitX=0.06;exitY=0.987;exitDx=0;exitDy=0;exitPerimeter=0;entryX=0.99;entryY=0.985;entryDx=0;entryDy=0;entryPerimeter=0;" parent="1" source="xQuqzKJTbSrKoZD_pOgn-54" target="xQuqzKJTbSrKoZD_pOgn-54" edge="1">
          <mxGeometry width="50" height="50" relative="1" as="geometry">
            <mxPoint x="655" y="864.45" as="sourcePoint" />
            <mxPoint x="720" y="864.45" as="targetPoint" />
          </mxGeometry>
        </mxCell>
        <mxCell id="xQuqzKJTbSrKoZD_pOgn-54" value="Data Out" style="text;html=1;align=center;verticalAlign=middle;resizable=0;points=[];autosize=1;strokeColor=none;fillColor=none;" parent="1" vertex="1">
          <mxGeometry x="610" y="834.87" width="70" height="30" as="geometry" />
        </mxCell>
        <mxCell id="xQuqzKJTbSrKoZD_pOgn-55" value="" style="endArrow=classic;html=1;rounded=0;exitX=0.06;exitY=0.987;exitDx=0;exitDy=0;exitPerimeter=0;entryX=0.99;entryY=0.985;entryDx=0;entryDy=0;entryPerimeter=0;" parent="1" source="xQuqzKJTbSrKoZD_pOgn-56" target="xQuqzKJTbSrKoZD_pOgn-56" edge="1">
          <mxGeometry width="50" height="50" relative="1" as="geometry">
            <mxPoint x="655" y="934.58" as="sourcePoint" />
            <mxPoint x="720" y="934.58" as="targetPoint" />
          </mxGeometry>
        </mxCell>
        <mxCell id="xQuqzKJTbSrKoZD_pOgn-56" value="Data Out" style="text;html=1;align=center;verticalAlign=middle;resizable=0;points=[];autosize=1;strokeColor=none;fillColor=none;" parent="1" vertex="1">
          <mxGeometry x="610" y="905" width="70" height="30" as="geometry" />
        </mxCell>
        <mxCell id="xQuqzKJTbSrKoZD_pOgn-58" value="" style="endArrow=classic;html=1;rounded=0;" parent="1" edge="1">
          <mxGeometry width="50" height="50" relative="1" as="geometry">
            <mxPoint x="459.52" y="600" as="sourcePoint" />
            <mxPoint x="459.52" y="660" as="targetPoint" />
          </mxGeometry>
        </mxCell>
        <mxCell id="xQuqzKJTbSrKoZD_pOgn-59" value="Data In" style="text;html=1;align=center;verticalAlign=middle;whiteSpace=wrap;rounded=0;" parent="1" vertex="1">
          <mxGeometry x="370" y="615" width="60" height="30" as="geometry" />
        </mxCell>
        <mxCell id="xQuqzKJTbSrKoZD_pOgn-60" value="Write Enable&lt;div&gt;Write Line, Write Element&lt;/div&gt;" style="text;html=1;align=center;verticalAlign=middle;whiteSpace=wrap;rounded=0;" parent="1" vertex="1">
          <mxGeometry x="470" y="610" width="140" height="40" as="geometry" />
        </mxCell>
        <mxCell id="xQuqzKJTbSrKoZD_pOgn-61" value="" style="endArrow=classic;html=1;rounded=0;" parent="1" edge="1">
          <mxGeometry width="50" height="50" relative="1" as="geometry">
            <mxPoint x="315" y="600" as="sourcePoint" />
            <mxPoint x="315" y="660" as="targetPoint" />
          </mxGeometry>
        </mxCell>
        <mxCell id="xQuqzKJTbSrKoZD_pOgn-62" value="Clock&lt;br&gt;&lt;div&gt;Reset&lt;/div&gt;" style="text;html=1;align=center;verticalAlign=middle;whiteSpace=wrap;rounded=0;" parent="1" vertex="1">
          <mxGeometry x="255" y="615" width="60" height="30" as="geometry" />
        </mxCell>
        <mxCell id="fK88JFqMNJFnSsFuQUzL-3" value="" style="rounded=0;whiteSpace=wrap;html=1;" parent="1" vertex="1">
          <mxGeometry x="285" y="1210" width="320" height="320" as="geometry" />
        </mxCell>
        <mxCell id="fK88JFqMNJFnSsFuQUzL-4" value="Reg B" style="rounded=1;whiteSpace=wrap;html=1;" parent="1" vertex="1">
          <mxGeometry x="445.00000000000006" y="1460" width="70" height="70" as="geometry" />
        </mxCell>
        <mxCell id="fK88JFqMNJFnSsFuQUzL-8" value="Reg A" style="rounded=1;whiteSpace=wrap;html=1;" parent="1" vertex="1">
          <mxGeometry x="535" y="1390" width="70" height="70" as="geometry" />
        </mxCell>
        <mxCell id="fK88JFqMNJFnSsFuQUzL-11" value="" style="endArrow=classic;html=1;rounded=0;entryX=0.72;entryY=0.542;entryDx=0;entryDy=0;entryPerimeter=0;" parent="1" edge="1">
          <mxGeometry width="50" height="50" relative="1" as="geometry">
            <mxPoint x="229.99999999999997" y="1440" as="sourcePoint" />
            <mxPoint x="535" y="1439.9999999999998" as="targetPoint" />
          </mxGeometry>
        </mxCell>
        <mxCell id="wC2sk4pRGJKpXxJBbBtc-1" value="" style="triangle;whiteSpace=wrap;html=1;" parent="1" vertex="1">
          <mxGeometry x="445.00000000000006" y="1470" width="10" height="20" as="geometry" />
        </mxCell>
        <mxCell id="wC2sk4pRGJKpXxJBbBtc-2" value="" style="triangle;whiteSpace=wrap;html=1;" parent="1" vertex="1">
          <mxGeometry x="535" y="1400" width="10" height="20" as="geometry" />
        </mxCell>
        <mxCell id="wC2sk4pRGJKpXxJBbBtc-4" value="&lt;span style=&quot;caret-color: rgb(31, 31, 31); color: rgb(31, 31, 31); font-family: &amp;quot;Google Sans&amp;quot;, &amp;quot;Helvetica Neue&amp;quot;, sans-serif; font-size: 32px; text-align: left; background-color: rgb(255, 255, 255);&quot;&gt;×&lt;/span&gt;" style="shape=trapezoid;perimeter=trapezoidPerimeter;whiteSpace=wrap;html=1;fixedSize=1;rotation=90;" parent="1" vertex="1">
          <mxGeometry x="307.02" y="1350" width="100" height="40" as="geometry" />
        </mxCell>
        <mxCell id="anglha34Ka86vBHd0-1G-8" style="edgeStyle=orthogonalEdgeStyle;rounded=0;orthogonalLoop=1;jettySize=auto;html=1;exitX=0.5;exitY=0;exitDx=0;exitDy=0;entryX=0;entryY=0.5;entryDx=0;entryDy=0;" parent="1" source="anglha34Ka86vBHd0-1G-1" target="anglha34Ka86vBHd0-1G-5" edge="1">
          <mxGeometry relative="1" as="geometry" />
        </mxCell>
        <mxCell id="anglha34Ka86vBHd0-1G-1" value="&lt;span style=&quot;caret-color: rgb(31, 31, 31); color: rgb(31, 31, 31); font-family: &amp;quot;Google Sans&amp;quot;, &amp;quot;Helvetica Neue&amp;quot;, sans-serif; font-size: 32px; text-align: left; background-color: rgb(255, 255, 255);&quot;&gt;+&lt;/span&gt;" style="shape=trapezoid;perimeter=trapezoidPerimeter;whiteSpace=wrap;html=1;fixedSize=1;rotation=90;" parent="1" vertex="1">
          <mxGeometry x="387.02000000000004" y="1290" width="100" height="40" as="geometry" />
        </mxCell>
        <mxCell id="anglha34Ka86vBHd0-1G-4" style="edgeStyle=orthogonalEdgeStyle;rounded=0;orthogonalLoop=1;jettySize=auto;html=1;exitX=0.5;exitY=0;exitDx=0;exitDy=0;entryX=0.804;entryY=1.007;entryDx=0;entryDy=0;entryPerimeter=0;" parent="1" source="wC2sk4pRGJKpXxJBbBtc-4" target="anglha34Ka86vBHd0-1G-1" edge="1">
          <mxGeometry relative="1" as="geometry">
            <Array as="points">
              <mxPoint x="397.02000000000004" y="1370" />
              <mxPoint x="397.02000000000004" y="1340" />
            </Array>
          </mxGeometry>
        </mxCell>
        <mxCell id="anglha34Ka86vBHd0-1G-5" value="Reg C" style="rounded=1;whiteSpace=wrap;html=1;" parent="1" vertex="1">
          <mxGeometry x="497.02000000000004" y="1270" width="80" height="80" as="geometry" />
        </mxCell>
        <mxCell id="anglha34Ka86vBHd0-1G-6" value="" style="triangle;whiteSpace=wrap;html=1;" parent="1" vertex="1">
          <mxGeometry x="497.02000000000004" y="1285" width="10" height="20" as="geometry" />
        </mxCell>
        <mxCell id="anglha34Ka86vBHd0-1G-9" style="edgeStyle=orthogonalEdgeStyle;rounded=0;orthogonalLoop=1;jettySize=auto;html=1;exitX=1;exitY=0.5;exitDx=0;exitDy=0;" parent="1" source="anglha34Ka86vBHd0-1G-5" edge="1">
          <mxGeometry relative="1" as="geometry">
            <mxPoint x="655" y="1310" as="targetPoint" />
          </mxGeometry>
        </mxCell>
        <mxCell id="anglha34Ka86vBHd0-1G-12" value="" style="endArrow=classic;html=1;rounded=0;" parent="1" edge="1">
          <mxGeometry width="50" height="50" relative="1" as="geometry">
            <mxPoint x="397.02000000000004" y="1285" as="sourcePoint" />
            <mxPoint x="417.02000000000004" y="1285" as="targetPoint" />
          </mxGeometry>
        </mxCell>
        <mxCell id="anglha34Ka86vBHd0-1G-18" value="" style="endArrow=none;html=1;rounded=0;" parent="1" edge="1">
          <mxGeometry width="50" height="50" relative="1" as="geometry">
            <mxPoint x="397.02000000000004" y="1250" as="sourcePoint" />
            <mxPoint x="397.02000000000004" y="1285" as="targetPoint" />
          </mxGeometry>
        </mxCell>
        <mxCell id="anglha34Ka86vBHd0-1G-19" value="" style="endArrow=none;html=1;rounded=0;entryX=0.953;entryY=0.094;entryDx=0;entryDy=0;entryPerimeter=0;" parent="1" edge="1">
          <mxGeometry width="50" height="50" relative="1" as="geometry">
            <mxPoint x="397.02000000000004" y="1250" as="sourcePoint" />
            <mxPoint x="587.0199999999999" y="1250.0799999999997" as="targetPoint" />
          </mxGeometry>
        </mxCell>
        <mxCell id="anglha34Ka86vBHd0-1G-20" value="" style="endArrow=none;html=1;rounded=0;" parent="1" edge="1">
          <mxGeometry width="50" height="50" relative="1" as="geometry">
            <mxPoint x="587.02" y="1250" as="sourcePoint" />
            <mxPoint x="587.02" y="1310" as="targetPoint" />
          </mxGeometry>
        </mxCell>
        <mxCell id="anglha34Ka86vBHd0-1G-21" value="" style="endArrow=classic;html=1;rounded=0;" parent="1" edge="1">
          <mxGeometry width="50" height="50" relative="1" as="geometry">
            <mxPoint x="480.00000000000006" y="1170" as="sourcePoint" />
            <mxPoint x="480.00000000000006" y="1460" as="targetPoint" />
          </mxGeometry>
        </mxCell>
        <mxCell id="anglha34Ka86vBHd0-1G-22" value="" style="endArrow=classic;html=1;rounded=0;" parent="1" edge="1">
          <mxGeometry width="50" height="50" relative="1" as="geometry">
            <mxPoint x="317.02000000000004" y="1390" as="sourcePoint" />
            <mxPoint x="337.02000000000004" y="1389.84" as="targetPoint" />
          </mxGeometry>
        </mxCell>
        <mxCell id="anglha34Ka86vBHd0-1G-23" value="" style="endArrow=none;html=1;rounded=0;" parent="1" edge="1">
          <mxGeometry width="50" height="50" relative="1" as="geometry">
            <mxPoint x="317.02000000000004" y="1440" as="sourcePoint" />
            <mxPoint x="317.02000000000004" y="1390" as="targetPoint" />
          </mxGeometry>
        </mxCell>
        <mxCell id="anglha34Ka86vBHd0-1G-24" value="" style="endArrow=classic;html=1;rounded=0;" parent="1" edge="1">
          <mxGeometry width="50" height="50" relative="1" as="geometry">
            <mxPoint x="317.02000000000004" y="1350.16" as="sourcePoint" />
            <mxPoint x="337.02000000000004" y="1350" as="targetPoint" />
          </mxGeometry>
        </mxCell>
        <mxCell id="anglha34Ka86vBHd0-1G-25" value="" style="endArrow=none;html=1;rounded=0;" parent="1" edge="1">
          <mxGeometry width="50" height="50" relative="1" as="geometry">
            <mxPoint x="317.02000000000004" y="1350" as="sourcePoint" />
            <mxPoint x="317.02000000000004" y="1230" as="targetPoint" />
          </mxGeometry>
        </mxCell>
        <mxCell id="anglha34Ka86vBHd0-1G-26" value="" style="endArrow=none;html=1;rounded=0;" parent="1" edge="1">
          <mxGeometry width="50" height="50" relative="1" as="geometry">
            <mxPoint x="317.02000000000004" y="1230" as="sourcePoint" />
            <mxPoint x="477.02000000000004" y="1230" as="targetPoint" />
          </mxGeometry>
        </mxCell>
        <mxCell id="3nf_8oPdl7mWMQb_sywf-1" value="Ain" style="text;html=1;align=center;verticalAlign=middle;whiteSpace=wrap;rounded=0;" parent="1" vertex="1">
          <mxGeometry x="225" y="1410" width="50" height="30" as="geometry" />
        </mxCell>
        <mxCell id="3nf_8oPdl7mWMQb_sywf-2" value="Bin" style="text;html=1;align=center;verticalAlign=middle;whiteSpace=wrap;rounded=0;" parent="1" vertex="1">
          <mxGeometry x="480" y="1170" width="60" height="30" as="geometry" />
        </mxCell>
        <mxCell id="3nf_8oPdl7mWMQb_sywf-3" value="Aout" style="text;html=1;align=center;verticalAlign=middle;whiteSpace=wrap;rounded=0;" parent="1" vertex="1">
          <mxGeometry x="605" y="1410" width="50" height="30" as="geometry" />
        </mxCell>
        <mxCell id="3nf_8oPdl7mWMQb_sywf-4" value="Bout" style="text;html=1;align=center;verticalAlign=middle;whiteSpace=wrap;rounded=0;" parent="1" vertex="1">
          <mxGeometry x="480" y="1540" width="60" height="30" as="geometry" />
        </mxCell>
        <mxCell id="3nf_8oPdl7mWMQb_sywf-5" value="" style="endArrow=classic;html=1;rounded=0;" parent="1" edge="1">
          <mxGeometry width="50" height="50" relative="1" as="geometry">
            <mxPoint x="605" y="1440" as="sourcePoint" />
            <mxPoint x="655" y="1440" as="targetPoint" />
          </mxGeometry>
        </mxCell>
        <mxCell id="3nf_8oPdl7mWMQb_sywf-6" value="" style="endArrow=classic;html=1;rounded=0;entryX=0;entryY=1;entryDx=0;entryDy=0;" parent="1" target="3nf_8oPdl7mWMQb_sywf-4" edge="1">
          <mxGeometry width="50" height="50" relative="1" as="geometry">
            <mxPoint x="480" y="1530" as="sourcePoint" />
            <mxPoint x="480" y="1560" as="targetPoint" />
          </mxGeometry>
        </mxCell>
        <mxCell id="3nf_8oPdl7mWMQb_sywf-7" value="Cout" style="text;html=1;align=center;verticalAlign=middle;whiteSpace=wrap;rounded=0;" parent="1" vertex="1">
          <mxGeometry x="605" y="1280" width="50" height="30" as="geometry" />
        </mxCell>
        <mxCell id="3nf_8oPdl7mWMQb_sywf-9" value="" style="rounded=1;whiteSpace=wrap;html=1;" parent="1" vertex="1">
          <mxGeometry x="240" y="1720" width="370" height="340" as="geometry" />
        </mxCell>
        <mxCell id="3nf_8oPdl7mWMQb_sywf-10" value="Cycle Counter" style="rounded=1;whiteSpace=wrap;html=1;" parent="1" vertex="1">
          <mxGeometry x="320" y="1780" width="100" height="100" as="geometry" />
        </mxCell>
        <mxCell id="3nf_8oPdl7mWMQb_sywf-11" value="" style="triangle;whiteSpace=wrap;html=1;" parent="1" vertex="1">
          <mxGeometry x="320.00000000000006" y="1800" width="10" height="20" as="geometry" />
        </mxCell>
        <mxCell id="vaeXMLmpdPUk7t29GRx1-3" value="" style="endArrow=classic;html=1;rounded=0;" parent="1" edge="1">
          <mxGeometry width="50" height="50" relative="1" as="geometry">
            <mxPoint x="90" y="1880" as="sourcePoint" />
            <mxPoint x="240" y="1880" as="targetPoint" />
          </mxGeometry>
        </mxCell>
        <mxCell id="vaeXMLmpdPUk7t29GRx1-4" value="Instruction" style="text;html=1;align=center;verticalAlign=middle;whiteSpace=wrap;rounded=0;" parent="1" vertex="1">
          <mxGeometry x="110" y="1840" width="110" height="30" as="geometry" />
        </mxCell>
        <mxCell id="vaeXMLmpdPUk7t29GRx1-6" value="" style="endArrow=classic;html=1;rounded=0;" parent="1" edge="1">
          <mxGeometry width="50" height="50" relative="1" as="geometry">
            <mxPoint x="610" y="1939.52" as="sourcePoint" />
            <mxPoint x="760" y="1939.52" as="targetPoint" />
          </mxGeometry>
        </mxCell>
        <mxCell id="vaeXMLmpdPUk7t29GRx1-7" value="" style="endArrow=classic;html=1;rounded=0;" parent="1" edge="1">
          <mxGeometry width="50" height="50" relative="1" as="geometry">
            <mxPoint x="210" y="1314.5" as="sourcePoint" />
            <mxPoint x="280" y="1314.5" as="targetPoint" />
          </mxGeometry>
        </mxCell>
        <mxCell id="vaeXMLmpdPUk7t29GRx1-8" value="Write Enable" style="text;html=1;align=center;verticalAlign=middle;whiteSpace=wrap;rounded=0;" parent="1" vertex="1">
          <mxGeometry x="205" y="1274.5" width="80" height="30" as="geometry" />
        </mxCell>
        <mxCell id="vaeXMLmpdPUk7t29GRx1-9" value="" style="endArrow=classic;html=1;rounded=0;" parent="1" edge="1">
          <mxGeometry width="50" height="50" relative="1" as="geometry">
            <mxPoint x="284" y="1150" as="sourcePoint" />
            <mxPoint x="284" y="1210" as="targetPoint" />
          </mxGeometry>
        </mxCell>
        <mxCell id="vaeXMLmpdPUk7t29GRx1-10" value="Clock&lt;br&gt;&lt;div&gt;Reset&lt;/div&gt;" style="text;html=1;align=center;verticalAlign=middle;whiteSpace=wrap;rounded=0;" parent="1" vertex="1">
          <mxGeometry x="224" y="1165" width="60" height="30" as="geometry" />
        </mxCell>
        <mxCell id="vaeXMLmpdPUk7t29GRx1-12" value="Memory A&lt;div&gt;Data In Write Enable&lt;div&gt;Write Line, Write Element&lt;/div&gt;&lt;/div&gt;" style="text;html=1;align=center;verticalAlign=middle;whiteSpace=wrap;rounded=0;" parent="1" vertex="1">
          <mxGeometry x="615" y="1889.52" width="140" height="40" as="geometry" />
        </mxCell>
        <mxCell id="vaeXMLmpdPUk7t29GRx1-14" value="" style="endArrow=classic;html=1;rounded=0;" parent="1" edge="1">
          <mxGeometry width="50" height="50" relative="1" as="geometry">
            <mxPoint x="610" y="2009.52" as="sourcePoint" />
            <mxPoint x="760" y="2009.52" as="targetPoint" />
          </mxGeometry>
        </mxCell>
        <mxCell id="vaeXMLmpdPUk7t29GRx1-15" value="Memory B&lt;div&gt;Data In Write Enable&lt;div&gt;Write Line, Write Element&lt;/div&gt;&lt;/div&gt;" style="text;html=1;align=center;verticalAlign=middle;whiteSpace=wrap;rounded=0;" parent="1" vertex="1">
          <mxGeometry x="615" y="1959.52" width="140" height="40" as="geometry" />
        </mxCell>
        <mxCell id="vaeXMLmpdPUk7t29GRx1-16" value="" style="endArrow=classic;html=1;rounded=0;" parent="1" edge="1">
          <mxGeometry width="50" height="50" relative="1" as="geometry">
            <mxPoint x="610" y="1790" as="sourcePoint" />
            <mxPoint x="760" y="1790" as="targetPoint" />
          </mxGeometry>
        </mxCell>
        <mxCell id="vaeXMLmpdPUk7t29GRx1-17" value="Array Write Enable" style="text;html=1;align=center;verticalAlign=middle;whiteSpace=wrap;rounded=0;" parent="1" vertex="1">
          <mxGeometry x="615" y="1750" width="140" height="30" as="geometry" />
        </mxCell>
        <mxCell id="vaeXMLmpdPUk7t29GRx1-18" value="" style="endArrow=classic;html=1;rounded=0;" parent="1" edge="1">
          <mxGeometry width="50" height="50" relative="1" as="geometry">
            <mxPoint x="421.6" y="1660" as="sourcePoint" />
            <mxPoint x="421.6" y="1720" as="targetPoint" />
          </mxGeometry>
        </mxCell>
        <mxCell id="vaeXMLmpdPUk7t29GRx1-19" value="Clock&lt;br&gt;&lt;div&gt;Reset&lt;/div&gt;" style="text;html=1;align=center;verticalAlign=middle;whiteSpace=wrap;rounded=0;" parent="1" vertex="1">
          <mxGeometry x="361.6" y="1675" width="60" height="30" as="geometry" />
        </mxCell>
        <mxCell id="vaeXMLmpdPUk7t29GRx1-20" value="" style="endArrow=classic;html=1;rounded=0;exitX=0.06;exitY=0.987;exitDx=0;exitDy=0;exitPerimeter=0;" parent="1" edge="1">
          <mxGeometry width="50" height="50" relative="1" as="geometry">
            <mxPoint x="319.7600000000002" y="2060" as="sourcePoint" />
            <mxPoint x="320" y="2120" as="targetPoint" />
          </mxGeometry>
        </mxCell>
        <mxCell id="vaeXMLmpdPUk7t29GRx1-21" value="&lt;div&gt;Memory A&lt;/div&gt;Read Enable&amp;nbsp;&lt;div&gt;Read Element&amp;nbsp;&lt;/div&gt;" style="text;html=1;align=center;verticalAlign=middle;resizable=0;points=[];autosize=1;strokeColor=none;fillColor=none;" parent="1" vertex="1">
          <mxGeometry x="335" y="2060" width="100" height="60" as="geometry" />
        </mxCell>
        <mxCell id="vaeXMLmpdPUk7t29GRx1-23" value="" style="endArrow=classic;html=1;rounded=0;exitX=0.06;exitY=0.987;exitDx=0;exitDy=0;exitPerimeter=0;" parent="1" edge="1">
          <mxGeometry width="50" height="50" relative="1" as="geometry">
            <mxPoint x="444.7600000000002" y="2060" as="sourcePoint" />
            <mxPoint x="445" y="2120" as="targetPoint" />
          </mxGeometry>
        </mxCell>
        <mxCell id="vaeXMLmpdPUk7t29GRx1-24" value="&lt;div&gt;Memory B&lt;/div&gt;Read Enable&amp;nbsp;&lt;div&gt;Read Element&amp;nbsp;&lt;/div&gt;" style="text;html=1;align=center;verticalAlign=middle;resizable=0;points=[];autosize=1;strokeColor=none;fillColor=none;" parent="1" vertex="1">
          <mxGeometry x="460" y="2060" width="100" height="60" as="geometry" />
        </mxCell>
        <mxCell id="vm20l_G4kEEcBl3Ge9FO-1" value="" style="endArrow=classic;html=1;rounded=0;" parent="1" edge="1">
          <mxGeometry width="50" height="50" relative="1" as="geometry">
            <mxPoint x="610" y="1855" as="sourcePoint" />
            <mxPoint x="760" y="1855" as="targetPoint" />
          </mxGeometry>
        </mxCell>
        <mxCell id="vm20l_G4kEEcBl3Ge9FO-2" value="Array Output Row&lt;div&gt;Array Output Column&lt;/div&gt;" style="text;html=1;align=center;verticalAlign=middle;whiteSpace=wrap;rounded=0;" parent="1" vertex="1">
          <mxGeometry x="610" y="1820" width="140" height="40" as="geometry" />
        </mxCell>
        <mxCell id="-KeHUdzcm5HkZq3qrUlv-1" value="" style="endArrow=classic;html=1;rounded=0;" edge="1" parent="1">
          <mxGeometry width="50" height="50" relative="1" as="geometry">
            <mxPoint x="40" y="90" as="sourcePoint" />
            <mxPoint x="160" y="90" as="targetPoint" />
          </mxGeometry>
        </mxCell>
        <mxCell id="-KeHUdzcm5HkZq3qrUlv-2" value="Instruction" style="text;html=1;align=center;verticalAlign=middle;whiteSpace=wrap;rounded=0;" vertex="1" parent="1">
          <mxGeometry x="40" y="50" width="110" height="30" as="geometry" />
        </mxCell>
        <mxCell id="-KeHUdzcm5HkZq3qrUlv-3" value="" style="endArrow=classic;html=1;rounded=0;" edge="1" parent="1">
          <mxGeometry width="50" height="50" relative="1" as="geometry">
            <mxPoint x="740" y="440" as="sourcePoint" />
            <mxPoint x="740" y="530" as="targetPoint" />
          </mxGeometry>
        </mxCell>
        <mxCell id="-KeHUdzcm5HkZq3qrUlv-4" value="Output" style="text;html=1;align=center;verticalAlign=middle;whiteSpace=wrap;rounded=0;" vertex="1" parent="1">
          <mxGeometry x="655" y="470" width="85" height="30" as="geometry" />
        </mxCell>
      </root>
    </mxGraphModel>
  </diagram>
</mxfile>
